<svg xmlns="http://www.w3.org/2000/svg" viewBox="0 0 32 32" width="32" height="32">
  <style>
    #light-icon { display: inline; }
    #dark-icon { display: none; }
    @media (prefers-color-scheme: dark) {
      #light-icon { display: none; }
      #dark-icon { display: inline; }
    }
  </style>
  <g id="light-icon">
    <rect width="32" height="32" rx="8" fill="#fb923c"/>
    <path d="M6 8a2 2 0 0 1 2-2h16a2 2 0 0 1 2 2v12a2 2 0 0 1-2 2H11l-5 4V8z" fill="white"/>
  </g>
  <g id="dark-icon">
    <rect width="32" height="32" rx="8" fill="#1e1e2e"/>
    <path d="M6 8a2 2 0 0 1 2-2h16a2 2 0 0 1 2 2v12a2 2 0 0 1-2 2H11l-5 4V8z" fill="#fb923c"/>
  </g>
</svg>
